<?xml version="1.0" standalone="no"?>
<!DOCTYPE svg PUBLIC "-//W3C//DTD SVG 20010904//EN"
 "http://www.w3.org/TR/2001/REC-SVG-20010904/DTD/svg10.dtd">
<svg version="1.0" xmlns="http://www.w3.org/2000/svg"
 width="500.000000pt" height="500.000000pt" viewBox="0 0 500.000000 500.000000"
 preserveAspectRatio="xMidYMid meet">
<metadata>
Created by potrace 1.11, written by Peter Selinger 2001-2013
</metadata>
<g transform="translate(0.000000,500.000000) scale(0.100000,-0.100000)"
fill="#000000" stroke="none">
<path d="M2135 4640 c-218 -39 -393 -98 -607 -206 -201 -100 -368 -223 -544
-398 -245 -245 -411 -508 -529 -836 -29 -82 -82 -289 -91 -360 -3 -25 -8 -54
-10 -65 -17 -85 -22 -342 -10 -470 4 -44 8 -87 8 -95 0 -8 11 -69 23 -135 179
-947 958 -1662 1928 -1770 155 -18 472 -7 595 19 31 7 66 14 103 21 145 27
459 145 554 210 17 11 30 18 30 15 0 -3 36 17 80 44 490 303 855 799 988 1346
36 147 39 167 24 172 -21 7 -501 3 -514 -5 -6 -4 -15 -22 -18 -40 -42 -196
-157 -435 -299 -622 -419 -551 -1169 -786 -1826 -571 -117 38 -138 47 -245
102 -125 63 -195 108 -294 189 -555 452 -764 1182 -529 1854 30 87 114 264
149 313 11 14 19 29 19 33 0 3 33 50 74 103 195 255 451 447 741 557 64 25
226 69 286 79 l37 6 -2 262 c-1 165 -5 262 -11 264 -5 1 -55 -6 -110 -16z"/>
<path d="M2850 4387 l0 -265 73 -17 c639 -155 1138 -692 1251 -1347 l7 -38
264 0 263 0 -4 33 c-40 278 -118 525 -239 755 -229 433 -607 785 -1055 982
-129 57 -347 126 -455 144 -16 3 -47 8 -67 12 l-38 7 0 -266z"/>
<path d="M2397 3784 c-1 -1 -33 -5 -72 -9 -161 -15 -298 -51 -423 -113 -80
-40 -124 -73 -191 -141 -305 -312 -221 -792 176 -1013 136 -75 272 -119 648
-208 391 -93 491 -145 525 -271 31 -115 -32 -246 -155 -324 -62 -39 -99 -52
-195 -70 -70 -13 -277 -14 -325 -2 -85 21 -117 33 -168 60 -114 60 -198 174
-243 327 -22 75 -22 75 -55 74 -32 -1 -157 -12 -216 -19 -16 -1 -67 -6 -114
-10 -47 -3 -95 -8 -105 -10 -11 -2 -27 -4 -38 -4 -16 -1 -18 -6 -13 -43 17
-116 52 -221 111 -332 188 -357 584 -516 1176 -473 158 12 283 38 405 86 290
112 479 366 489 655 9 268 -91 469 -307 620 -90 62 -315 150 -492 192 -359 85
-450 109 -547 144 -186 68 -259 179 -199 303 36 74 161 137 307 156 65 9 245
7 289 -3 178 -39 270 -120 318 -283 9 -28 13 -54 10 -57 -5 -5 8 -9 27 -8 3 0
93 3 200 7 107 4 213 9 235 10 22 2 50 3 63 4 27 1 29 29 7 135 -41 197 -142
344 -312 456 -97 64 -239 118 -358 136 -22 3 -42 7 -45 9 -16 10 -404 27 -413
19z"/>
</g>
</svg>
